<?xml version="1.0" encoding="UTF-8"?>
<svg xmlns="http://www.w3.org/2000/svg" xmlns:xlink="http://www.w3.org/1999/xlink" width="360pt" height="245.45pt" viewBox="0 0 360 245.45" version="1.1">
<defs>
<clipPath id="clip1">
  <path d="M 0 0 L 360 0 L 360 245.449219 L 0 245.449219 Z M 0 0 "/>
</clipPath>
</defs>
<g id="surface1">
<g clip-path="url(#clip1)" clip-rule="nonzero">
<path style=" stroke:none;fill-rule:nonzero;fill:rgb(99.198914%,72.898865%,15.299988%);fill-opacity:1;" d="M 40.445313 139.433594 C 40.554688 143.867188 41.160156 147.890625 41.914063 151.871094 C 43.382813 159.621094 45.382813 167.246094 49.820313 173.917969 C 53.097656 178.839844 57.292969 182.496094 63.683594 182.589844 C 71.058594 182.691406 76.199219 179.128906 79.757813 172.929688 C 82.292969 168.511719 82.234375 168.515625 77.621094 166.71875 C 76.097656 166.121094 75.207031 166.378906 74.890625 167.925781 C 74.625 169.210938 73.785156 170.15625 73.152344 171.179688 C 69.097656 177.734375 61.675781 178.21875 56.800781 172.242188 C 52.605469 167.101563 51.039063 160.808594 49.402344 154.578125 C 49.140625 153.585938 49.359375 152.902344 50.65625 152.6875 C 53.355469 152.246094 56.023438 151.609375 58.695313 151.023438 C 65.011719 149.648438 71.304688 148.183594 77.644531 146.914063 C 79.296875 146.582031 79.421875 145.84375 79.046875 144.539063 C 78.585938 142.949219 78.144531 141.351563 77.695313 139.757813 C 76.050781 133.886719 73.601563 128.433594 69.570313 123.769531 C 63.34375 116.566406 51.894531 116.238281 45.605469 123.308594 C 41.464844 127.960938 40.824219 133.867188 40.445313 139.433594 Z M 196.128906 99.265625 C 197.535156 98.871094 197.867188 99.554688 198.101563 100.753906 C 199.007813 105.382813 200.03125 109.988281 201.019531 114.601563 C 202.5 121.546875 204.007813 128.484375 205.453125 135.4375 C 205.816406 137.191406 207.226563 139.164063 206.253906 140.65625 C 205.210938 142.257813 202.773438 141.835938 200.9375 142.203125 C 199.109375 142.574219 198.855469 143.59375 199.378906 145.09375 C 199.980469 146.828125 200.410156 148.609375 200.539063 150.429688 C 200.679688 152.417969 201.492188 152.921875 203.460938 152.460938 C 209.832031 150.964844 216.230469 149.566406 222.644531 148.257813 C 227.5625 147.25 227.578125 147.335938 226.75 142.550781 C 225.730469 136.664063 225.578125 136.53125 219.691406 138.375 C 218.199219 138.84375 217.519531 138.492188 217.210938 137.027344 C 216.503906 133.71875 215.75 130.417969 215.027344 127.109375 C 212.957031 117.585938 210.914063 108.054688 208.796875 98.539063 C 208.480469 97.125 208.726563 96.328125 210.214844 96.007813 C 212.203125 95.574219 214.953125 95.777344 215.894531 94.242188 C 216.855469 92.675781 215.269531 90.335938 214.96875 88.300781 C 214.882813 87.730469 214.546875 87.183594 214.546875 86.625 C 214.539063 84.703125 213.574219 84.601563 211.996094 84.953125 C 204.5 86.628906 196.992188 88.234375 189.476563 89.808594 C 188.269531 90.0625 187.714844 90.496094 188.011719 91.808594 C 188.578125 94.308594 189.054688 96.828125 189.578125 99.339844 C 189.796875 100.390625 190.53125 100.21875 191.320313 100.113281 C 192.960938 99.890625 194.5 99.113281 196.128906 99.265625 Z M 232.355469 99.265625 C 232.222656 102.113281 232.8125 104.890625 233.199219 107.679688 C 234.394531 116.277344 236.453125 124.625 241.296875 131.988281 C 245.324219 138.113281 250.6875 141.929688 258.472656 141.144531 C 267.488281 140.238281 272.496094 134.636719 275.621094 126.71875 C 276.425781 124.683594 275.859375 123.683594 273.78125 123.175781 C 272.597656 122.882813 271.507813 122.210938 270.355469 121.753906 C 266.34375 120.148438 266.457031 120.203125 264.671875 124.195313 C 263.304688 127.25 261.519531 130.222656 257.710938 130.507813 C 253.945313 130.789063 251.933594 128.203125 250.234375 125.28125 C 247.757813 121.015625 246.34375 116.359375 245.289063 111.601563 C 243.957031 105.589844 242.992188 99.535156 244.023438 93.335938 C 244.53125 90.273438 246.070313 88.074219 249.003906 87.140625 C 251.796875 86.25 253.847656 87.921875 255.902344 89.546875 C 257.167969 90.546875 257.757813 92.988281 259.371094 92.621094 C 260.839844 92.285156 262.015625 90.519531 263.234375 89.296875 C 267.292969 85.238281 267.277344 85.222656 263.085938 81.195313 C 255.785156 74.1875 244.011719 74.578125 237.371094 82.203125 C 233.128906 87.070313 232.566406 93.148438 232.355469 99.265625 Z M 111.121094 107.160156 C 104.957031 107.492188 99.109375 109.519531 93.0625 110.492188 C 91.558594 110.734375 91.585938 111.640625 91.851563 112.867188 C 94.449219 124.753906 96.765625 136.695313 99.558594 148.539063 C 101.363281 156.183594 102.941406 163.886719 104.492188 171.589844 C 104.792969 173.085938 105.25 173.617188 106.746094 173.253906 C 108.839844 172.746094 110.9375 172.152344 113.070313 171.933594 C 115.378906 171.695313 115.652344 170.6875 115.179688 168.648438 C 113.679688 162.191406 112.355469 155.695313 110.9375 149.21875 C 110.171875 145.734375 110.148438 145.734375 113.453125 144.960938 C 114.015625 144.828125 114.589844 144.75 115.152344 144.621094 C 121.628906 143.148438 126.402344 139.859375 128.402344 133.09375 C 129.707031 128.675781 129.230469 124.464844 128.25 120.128906 C 126.347656 111.707031 119.761719 106.660156 111.121094 107.160156 Z M 292.914063 133.066406 C 294.15625 132.839844 294.980469 132.71875 295.789063 132.542969 C 302.988281 130.976563 310.183594 129.382813 317.382813 127.835938 C 326.71875 125.828125 325.378906 127.730469 323.414063 118.085938 C 323.121094 116.644531 322.59375 116.210938 321.054688 116.546875 C 315.144531 117.839844 309.1875 118.921875 303.273438 120.222656 C 301.511719 120.609375 300.558594 120.578125 300.164063 118.445313 C 299.285156 113.644531 298.1875 108.882813 297.070313 104.128906 C 296.738281 102.71875 297.5625 102.578125 298.480469 102.386719 C 303.425781 101.351563 308.363281 100.277344 313.324219 99.332031 C 314.695313 99.070313 315.210938 98.578125 314.867188 97.179688 C 314.371094 95.171875 313.773438 93.15625 313.578125 91.109375 C 313.363281 88.855469 312.222656 88.613281 310.398438 89.023438 C 305.804688 90.058594 301.152344 90.882813 296.617188 92.132813 C 294.738281 92.652344 294.441406 91.863281 294.148438 90.535156 C 293.492188 87.546875 293.058594 84.492188 292.136719 81.589844 C 291.371094 79.175781 292.085938 78.335938 294.398438 77.890625 C 300.074219 76.796875 305.71875 75.511719 311.378906 74.328125 C 313.011719 73.988281 314.09375 73.476563 313.445313 71.40625 C 312.804688 69.355469 312.355469 67.222656 312.050781 65.09375 C 311.832031 63.546875 311.214844 63.476563 309.878906 63.78125 C 300.851563 65.832031 291.808594 67.832031 282.757813 69.785156 C 278.472656 70.707031 278.507813 70.632813 279.445313 74.859375 C 281.847656 85.691406 284.222656 96.527344 286.5625 107.371094 C 288.304688 115.464844 289.988281 123.566406 291.675781 131.671875 C 291.875 132.625 292.242188 133.222656 292.914063 133.066406 Z M 176.820313 117.898438 C 176.753906 113.417969 176.089844 110.273438 174.929688 107.226563 C 172.214844 100.109375 164.707031 95.355469 157.648438 96.597656 C 152.113281 97.570313 146.644531 98.890625 141.152344 100.105469 C 139.628906 100.441406 138.917969 101.09375 139.359375 103.03125 C 141.839844 113.933594 144.121094 124.878906 146.464844 135.808594 C 148.269531 144.222656 150.109375 152.628906 151.828125 161.058594 C 152.175781 162.742188 152.820313 163.347656 154.515625 162.9375 C 156.613281 162.429688 158.738281 162.042969 160.855469 161.628906 C 162.363281 161.335938 163.125 160.800781 162.699219 158.945313 C 161.097656 152.003906 159.652344 145.027344 158.230469 138.046875 C 158.042969 137.128906 157.261719 135.8125 158.761719 135.246094 C 159.941406 134.800781 160.632813 135.558594 161.378906 136.53125 C 166.96875 143.796875 172.691406 150.964844 178.261719 158.246094 C 179.183594 159.449219 179.816406 159.476563 180.84375 158.644531 C 182.769531 157.085938 184.679688 155.507813 186.648438 154.011719 C 187.867188 153.085938 187.78125 152.414063 186.824219 151.210938 C 181.988281 145.140625 177.324219 138.933594 172.507813 132.847656 C 171.386719 131.429688 171.25 130.460938 172.566406 129.058594 C 175.816406 125.609375 176.6875 121.242188 176.820313 117.898438 Z M 359.980469 107.179688 C 359.957031 115.351563 358.59375 123.347656 356.734375 131.277344 C 353.9375 143.21875 352.46875 155.230469 354.355469 167.507813 C 354.78125 170.289063 355.277344 173.046875 355.839844 175.796875 C 356.105469 177.109375 356.148438 177.90625 354.289063 178.335938 C 342.101563 181.144531 329.839844 183.621094 317.605469 186.214844 C 309.273438 187.980469 301 190.019531 292.671875 191.804688 C 281.734375 194.148438 270.753906 196.304688 259.816406 198.660156 C 251.585938 200.433594 243.402344 202.457031 235.175781 204.25 C 226.839844 206.066406 218.46875 207.714844 210.121094 209.492188 C 203.730469 210.851563 197.359375 212.3125 190.976563 213.703125 C 182.984375 215.4375 174.988281 217.160156 166.988281 218.863281 C 160.824219 220.179688 154.648438 221.417969 148.492188 222.746094 C 138.714844 224.851563 128.953125 227.027344 119.179688 229.125 C 107.515625 231.628906 95.804688 233.9375 84.179688 236.601563 C 74.027344 238.929688 63.839844 241.0625 53.65625 243.25 C 50.496094 243.925781 47.347656 244.679688 44.179688 245.339844 C 43.070313 245.570313 42.195313 245.566406 41.855469 243.972656 C 38.804688 229.515625 32.804688 216.421875 23.5625 204.835938 C 16.144531 195.539063 9.894531 185.554688 6.117188 174.183594 C 3.210938 165.421875 1.429688 156.433594 0.433594 147.253906 C -0.839844 135.519531 0.847656 124.113281 3.507813 112.742188 C 6.191406 101.289063 7.417969 89.738281 5.636719 77.972656 C 5.214844 75.191406 4.785156 72.417969 4.164063 69.675781 C 3.796875 68.046875 4 67.179688 5.945313 66.78125 C 16.40625 64.644531 26.84375 62.371094 37.277344 60.101563 C 46.25 58.152344 55.191406 56.074219 64.171875 54.164063 C 77.457031 51.34375 90.773438 48.671875 104.054688 45.839844 C 112.863281 43.960938 121.625 41.867188 130.425781 39.957031 C 141.519531 37.546875 152.636719 35.257813 163.730469 32.863281 C 176.667969 30.066406 189.585938 27.191406 202.523438 24.398438 C 213.433594 22.039063 224.363281 19.78125 235.273438 17.425781 C 249.28125 14.402344 263.269531 11.300781 277.273438 8.269531 C 289.890625 5.539063 302.519531 2.871094 315.144531 0.160156 C 316.941406 -0.226563 317.75 -0.0429688 318.273438 2.214844 C 321.308594 15.308594 326.496094 27.449219 334.738281 38.226563 C 341.3125 46.820313 347.730469 55.496094 351.777344 65.738281 C 355.984375 76.394531 358.457031 87.375 359.570313 98.722656 C 359.847656 101.539063 360.066406 104.347656 359.980469 107.179688 "/>
</g>
<path style=" stroke:none;fill-rule:nonzero;fill:rgb(0%,0%,0%);fill-opacity:1;" d="M 165.609375 116.933594 C 165.59375 116.652344 165.65625 115.800781 165.476563 115.003906 C 163.792969 107.511719 162.113281 106.917969 156.566406 107.433594 C 155.757813 107.507813 154.980469 107.996094 154.175781 108.050781 C 151.964844 108.203125 151.941406 109.535156 152.316406 111.171875 C 153.25 115.269531 154.191406 119.363281 155.101563 123.464844 C 155.246094 124.109375 155.191406 124.722656 156.101563 124.90625 C 160.914063 125.867188 165.605469 122.226563 165.609375 116.933594 Z M 176.820313 117.898438 C 176.6875 121.242188 175.816406 125.609375 172.566406 129.058594 C 171.25 130.460938 171.386719 131.429688 172.507813 132.847656 C 177.324219 138.933594 181.988281 145.140625 186.824219 151.210938 C 187.78125 152.414063 187.867188 153.085938 186.648438 154.011719 C 184.679688 155.507813 182.769531 157.085938 180.84375 158.644531 C 179.816406 159.476563 179.183594 159.449219 178.261719 158.246094 C 172.691406 150.964844 166.96875 143.796875 161.378906 136.53125 C 160.632813 135.558594 159.941406 134.800781 158.761719 135.246094 C 157.261719 135.8125 158.042969 137.128906 158.230469 138.046875 C 159.652344 145.027344 161.097656 152.003906 162.699219 158.945313 C 163.125 160.800781 162.363281 161.335938 160.855469 161.628906 C 158.738281 162.042969 156.613281 162.429688 154.515625 162.9375 C 152.820313 163.347656 152.175781 162.742188 151.828125 161.058594 C 150.109375 152.628906 148.269531 144.222656 146.464844 135.808594 C 144.121094 124.878906 141.839844 113.933594 139.359375 103.03125 C 138.917969 101.09375 139.628906 100.441406 141.152344 100.105469 C 146.644531 98.890625 152.113281 97.570313 157.648438 96.597656 C 164.707031 95.355469 172.214844 100.109375 174.929688 107.226563 C 176.089844 110.273438 176.753906 113.417969 176.820313 117.898438 "/>
<path style=" stroke:none;fill-rule:nonzero;fill:rgb(0%,0%,0%);fill-opacity:1;" d="M 292.914063 133.066406 C 292.242188 133.222656 291.875 132.625 291.675781 131.671875 C 289.988281 123.566406 288.304688 115.464844 286.5625 107.371094 C 284.222656 96.527344 281.847656 85.691406 279.445313 74.859375 C 278.507813 70.632813 278.472656 70.707031 282.757813 69.785156 C 291.808594 67.832031 300.851563 65.832031 309.878906 63.78125 C 311.214844 63.476563 311.832031 63.546875 312.050781 65.09375 C 312.355469 67.222656 312.804688 69.355469 313.445313 71.40625 C 314.09375 73.476563 313.011719 73.988281 311.378906 74.328125 C 305.71875 75.511719 300.074219 76.796875 294.398438 77.890625 C 292.085938 78.335938 291.371094 79.175781 292.136719 81.589844 C 293.058594 84.492188 293.492188 87.546875 294.148438 90.535156 C 294.441406 91.863281 294.738281 92.652344 296.617188 92.132813 C 301.152344 90.882813 305.804688 90.058594 310.398438 89.023438 C 312.222656 88.613281 313.363281 88.855469 313.578125 91.109375 C 313.773438 93.15625 314.371094 95.171875 314.867188 97.179688 C 315.210938 98.578125 314.695313 99.070313 313.324219 99.332031 C 308.363281 100.277344 303.425781 101.351563 298.480469 102.386719 C 297.5625 102.578125 296.738281 102.71875 297.070313 104.128906 C 298.1875 108.882813 299.285156 113.644531 300.164063 118.445313 C 300.558594 120.578125 301.511719 120.609375 303.273438 120.222656 C 309.1875 118.921875 315.144531 117.839844 321.054688 116.546875 C 322.59375 116.210938 323.121094 116.644531 323.414063 118.085938 C 325.378906 127.730469 326.71875 125.828125 317.382813 127.835938 C 310.183594 129.382813 302.988281 130.976563 295.789063 132.542969 C 294.980469 132.71875 294.15625 132.839844 292.914063 133.066406 "/>
<path style=" stroke:none;fill-rule:nonzero;fill:rgb(0%,0%,0%);fill-opacity:1;" d="M 110.613281 117.691406 C 109.332031 117.40625 107.867188 118.285156 106.292969 118.3125 C 104.867188 118.339844 104.367188 118.949219 104.679688 120.347656 C 105.421875 123.644531 106.085938 126.964844 106.851563 130.257813 C 107.230469 131.898438 106.972656 134.140625 108.316406 134.992188 C 109.734375 135.886719 111.550781 134.117188 113.320313 134.210938 C 113.398438 134.214844 113.484375 134.183594 113.5625 134.160156 C 115.558594 133.527344 117.003906 132.390625 117.714844 130.292969 C 118.660156 127.496094 117.855469 124.867188 117.144531 122.242188 C 116.253906 118.964844 114.394531 117.679688 110.613281 117.691406 Z M 111.121094 107.160156 C 119.761719 106.660156 126.347656 111.707031 128.25 120.128906 C 129.230469 124.464844 129.707031 128.675781 128.402344 133.09375 C 126.402344 139.859375 121.628906 143.148438 115.152344 144.621094 C 114.589844 144.75 114.015625 144.828125 113.453125 144.960938 C 110.148438 145.734375 110.171875 145.734375 110.9375 149.21875 C 112.355469 155.695313 113.679688 162.191406 115.179688 168.648438 C 115.652344 170.6875 115.378906 171.695313 113.070313 171.933594 C 110.9375 172.152344 108.839844 172.746094 106.746094 173.253906 C 105.25 173.617188 104.792969 173.085938 104.492188 171.589844 C 102.941406 163.886719 101.363281 156.183594 99.558594 148.539063 C 96.765625 136.695313 94.449219 124.753906 91.851563 112.867188 C 91.585938 111.640625 91.558594 110.734375 93.0625 110.492188 C 99.109375 109.519531 104.957031 107.492188 111.121094 107.160156 "/>
<path style=" stroke:none;fill-rule:nonzero;fill:rgb(0%,0%,0%);fill-opacity:1;" d="M 232.355469 99.265625 C 232.566406 93.148438 233.128906 87.070313 237.371094 82.203125 C 244.011719 74.578125 255.785156 74.1875 263.085938 81.195313 C 267.277344 85.222656 267.292969 85.238281 263.234375 89.296875 C 262.015625 90.519531 260.839844 92.285156 259.371094 92.621094 C 257.757813 92.988281 257.167969 90.546875 255.902344 89.546875 C 253.847656 87.921875 251.796875 86.25 249.003906 87.140625 C 246.070313 88.074219 244.53125 90.273438 244.023438 93.335938 C 242.992188 99.535156 243.957031 105.589844 245.289063 111.601563 C 246.34375 116.359375 247.757813 121.015625 250.234375 125.28125 C 251.933594 128.203125 253.945313 130.789063 257.710938 130.507813 C 261.519531 130.222656 263.304688 127.25 264.671875 124.195313 C 266.457031 120.203125 266.34375 120.148438 270.355469 121.753906 C 271.507813 122.210938 272.597656 122.882813 273.78125 123.175781 C 275.859375 123.683594 276.425781 124.683594 275.621094 126.71875 C 272.496094 134.636719 267.488281 140.238281 258.472656 141.144531 C 250.6875 141.929688 245.324219 138.113281 241.296875 131.988281 C 236.453125 124.625 234.394531 116.277344 233.199219 107.679688 C 232.8125 104.890625 232.222656 102.113281 232.355469 99.265625 "/>
<path style=" stroke:none;fill-rule:nonzero;fill:rgb(0%,0%,0%);fill-opacity:1;" d="M 196.128906 99.265625 C 194.5 99.113281 192.960938 99.890625 191.320313 100.113281 C 190.53125 100.21875 189.796875 100.390625 189.578125 99.339844 C 189.054688 96.828125 188.578125 94.308594 188.011719 91.808594 C 187.714844 90.496094 188.269531 90.0625 189.476563 89.808594 C 196.992188 88.234375 204.5 86.628906 211.996094 84.953125 C 213.574219 84.601563 214.539063 84.703125 214.546875 86.625 C 214.546875 87.183594 214.882813 87.730469 214.96875 88.300781 C 215.269531 90.335938 216.855469 92.675781 215.894531 94.242188 C 214.953125 95.777344 212.203125 95.574219 210.214844 96.007813 C 208.726563 96.328125 208.480469 97.125 208.796875 98.539063 C 210.914063 108.054688 212.957031 117.585938 215.027344 127.109375 C 215.75 130.417969 216.503906 133.71875 217.210938 137.027344 C 217.519531 138.492188 218.199219 138.84375 219.691406 138.375 C 225.578125 136.53125 225.730469 136.664063 226.75 142.550781 C 227.578125 147.335938 227.5625 147.25 222.644531 148.257813 C 216.230469 149.566406 209.832031 150.964844 203.460938 152.460938 C 201.492188 152.921875 200.679688 152.417969 200.539063 150.429688 C 200.410156 148.609375 199.980469 146.828125 199.378906 145.09375 C 198.855469 143.59375 199.109375 142.574219 200.9375 142.203125 C 202.773438 141.835938 205.210938 142.257813 206.253906 140.65625 C 207.226563 139.164063 205.816406 137.191406 205.453125 135.4375 C 204.007813 128.484375 202.5 121.546875 201.019531 114.601563 C 200.03125 109.988281 199.007813 105.382813 198.101563 100.753906 C 197.867188 99.554688 197.535156 98.871094 196.128906 99.265625 "/>
<path style=" stroke:none;fill-rule:nonzero;fill:rgb(0%,0%,0%);fill-opacity:1;" d="M 47.195313 139.375 C 47.152344 141.296875 47.589844 143.171875 47.699219 145.0625 C 47.800781 146.816406 48.710938 146.890625 49.96875 146.617188 C 51.980469 146.179688 53.976563 145.65625 55.988281 145.222656 C 60.511719 144.246094 65.042969 143.3125 69.566406 142.328125 C 70.347656 142.160156 71.40625 142.015625 71 140.804688 C 69.292969 135.707031 67.605469 130.558594 63.390625 126.855469 C 58.589844 122.636719 51.929688 124.023438 49.042969 129.71875 C 47.496094 132.773438 47.378906 136.074219 47.195313 139.375 Z M 40.445313 139.433594 C 40.824219 133.867188 41.464844 127.960938 45.605469 123.308594 C 51.894531 116.238281 63.34375 116.566406 69.570313 123.769531 C 73.601563 128.433594 76.050781 133.886719 77.695313 139.757813 C 78.144531 141.351563 78.585938 142.949219 79.046875 144.539063 C 79.421875 145.84375 79.296875 146.582031 77.644531 146.914063 C 71.304688 148.183594 65.011719 149.648438 58.695313 151.023438 C 56.023438 151.609375 53.355469 152.246094 50.65625 152.6875 C 49.359375 152.902344 49.140625 153.585938 49.402344 154.578125 C 51.039063 160.808594 52.605469 167.101563 56.800781 172.242188 C 61.675781 178.21875 69.097656 177.734375 73.152344 171.179688 C 73.785156 170.15625 74.625 169.210938 74.890625 167.925781 C 75.207031 166.378906 76.097656 166.121094 77.621094 166.71875 C 82.234375 168.515625 82.292969 168.511719 79.757813 172.929688 C 76.199219 179.128906 71.058594 182.691406 63.683594 182.589844 C 57.292969 182.496094 53.097656 178.839844 49.820313 173.917969 C 45.382813 167.246094 43.382813 159.621094 41.914063 151.871094 C 41.160156 147.890625 40.554688 143.867188 40.445313 139.433594 "/>
<path style=" stroke:none;fill-rule:nonzero;fill:rgb(99.198914%,72.898865%,15.299988%);fill-opacity:1;" d="M 165.609375 116.933594 C 165.605469 122.226563 160.914063 125.867188 156.101563 124.90625 C 155.191406 124.722656 155.246094 124.109375 155.101563 123.464844 C 154.191406 119.363281 153.25 115.269531 152.316406 111.171875 C 151.941406 109.535156 151.964844 108.203125 154.175781 108.050781 C 154.980469 107.996094 155.757813 107.507813 156.566406 107.433594 C 162.113281 106.917969 163.792969 107.511719 165.476563 115.003906 C 165.65625 115.800781 165.59375 116.652344 165.609375 116.933594 "/>
<path style=" stroke:none;fill-rule:nonzero;fill:rgb(99.198914%,72.898865%,15.299988%);fill-opacity:1;" d="M 110.613281 117.691406 C 114.394531 117.679688 116.253906 118.964844 117.144531 122.242188 C 117.855469 124.867188 118.660156 127.496094 117.714844 130.292969 C 117.003906 132.390625 115.558594 133.527344 113.5625 134.160156 C 113.484375 134.183594 113.398438 134.214844 113.320313 134.210938 C 111.550781 134.117188 109.734375 135.886719 108.316406 134.992188 C 106.972656 134.140625 107.230469 131.898438 106.851563 130.257813 C 106.085938 126.964844 105.421875 123.644531 104.679688 120.347656 C 104.367188 118.949219 104.867188 118.339844 106.292969 118.3125 C 107.867188 118.285156 109.332031 117.40625 110.613281 117.691406 "/>
<path style=" stroke:none;fill-rule:nonzero;fill:rgb(99.198914%,72.898865%,15.299988%);fill-opacity:1;" d="M 47.195313 139.375 C 47.378906 136.074219 47.496094 132.773438 49.042969 129.71875 C 51.929688 124.023438 58.589844 122.636719 63.390625 126.855469 C 67.605469 130.558594 69.292969 135.707031 71 140.804688 C 71.40625 142.015625 70.347656 142.160156 69.566406 142.328125 C 65.042969 143.3125 60.511719 144.246094 55.988281 145.222656 C 53.976563 145.65625 51.980469 146.179688 49.96875 146.617188 C 48.710938 146.890625 47.800781 146.816406 47.699219 145.0625 C 47.589844 143.171875 47.152344 141.296875 47.195313 139.375 "/>
</g>
</svg>
